<svg width="20" height="15" viewBox="0 0 20 15" fill="none" xmlns="http://www.w3.org/2000/svg">
<g clip-path="url(#clip0_7301_2721)">
<path d="M0 10H20V15H0V10Z" fill="#1EB53A"/>
<path d="M0 0H20V5H0V0Z" fill="#0099B5"/>
<path d="M0 4.7998H20V10.1998H0V4.7998Z" fill="#CE1126"/>
<path d="M0 5.09998H20V9.89998H0V5.09998Z" fill="white"/>
<path d="M4.1999 4.19998C5.19401 4.19998 5.9999 3.39409 5.9999 2.39998C5.9999 1.40586 5.19401 0.599976 4.1999 0.599976C3.20579 0.599976 2.3999 1.40586 2.3999 2.39998C2.3999 3.39409 3.20579 4.19998 4.1999 4.19998Z" fill="white"/>
<path d="M4.80001 4.19998C5.79412 4.19998 6.60001 3.39409 6.60001 2.39998C6.60001 1.40586 5.79412 0.599976 4.80001 0.599976C3.80589 0.599976 3 1.40586 3 2.39998C3 3.39409 3.80589 4.19998 4.80001 4.19998Z" fill="#0099B5"/>
<path d="M8.15942 3.48047L8.04541 3.82248L8.21942 3.88248" fill="white"/>
<path d="M8.15942 3.48047L8.04541 3.82248L8.21942 3.88248" fill="white"/>
<path d="M8.15942 3.48047L8.04541 3.82248L8.21942 3.88248" fill="white"/>
<path d="M8.15942 3.48047L8.04541 3.82248L8.21942 3.88248" fill="white"/>
<path d="M8.15942 3.48047L8.04541 3.82248L8.21942 3.88248" fill="white"/>
<path d="M8.15942 3.48047L8.04541 3.82248L8.21942 3.88248" fill="white"/>
<path d="M8.15942 3.48047L8.04541 3.82248L8.21942 3.88248" fill="white"/>
<path d="M8.15942 3.48047L8.04541 3.82248L8.21942 3.88248" fill="white"/>
<path d="M8.15942 3.48047L8.04541 3.82248L8.21942 3.88248" fill="white"/>
<path d="M8.15942 3.48047L8.04541 3.82248L8.21942 3.88248" fill="white"/>
<path d="M8.15942 3.48047L8.04541 3.82248L8.21942 3.88248" fill="white"/>
<path d="M8.15942 3.48047L8.04541 3.82248L8.21942 3.88248" fill="white"/>
<path d="M8.15942 3.48047L8.04541 3.82248L8.21942 3.88248" fill="white"/>
<path d="M8.15942 3.48047L8.04541 3.82248L8.21942 3.88248" fill="white"/>
<path d="M8.15942 3.48047L8.04541 3.82248L8.21942 3.88248" fill="white"/>
<path d="M8.15942 3.48047L8.04541 3.82248L8.21942 3.88248" fill="white"/>
<path d="M8.15942 3.48047L8.04541 3.82248L8.21942 3.88248" fill="white"/>
<path d="M8.15942 3.48047L8.04541 3.82248L8.21942 3.88248" fill="white"/>
<path d="M8.15942 3.48047L8.04541 3.82248L8.21942 3.88248" fill="white"/>
<path d="M8.15942 3.48047L8.04541 3.82248L8.21942 3.88248" fill="white"/>
<path d="M8.15942 3.48047L8.04541 3.82248L8.21942 3.88248" fill="white"/>
<path d="M8.15942 3.48047L8.04541 3.82248L8.21942 3.88248" fill="white"/>
<path d="M8.15942 3.48047L8.04541 3.82248L8.21942 3.88248" fill="white"/>
<path d="M8.15942 3.48047L8.04541 3.82248L8.21942 3.88248" fill="white"/>
<path d="M8.15942 3.48047L8.04541 3.82248L8.21942 3.88248" fill="white"/>
<path d="M8.15942 3.48047L8.04541 3.82248L8.21942 3.88248" fill="white"/>
<path d="M8.15942 3.48047L8.04541 3.82248L8.21942 3.88248" fill="white"/>
<path d="M8.15942 3.48047L8.04541 3.82248L8.21942 3.88248" fill="white"/>
<path d="M8.15942 3.48047L8.04541 3.82248L8.21942 3.88248" fill="white"/>
<path d="M8.15942 3.48047L8.04541 3.82248L8.21942 3.88248" fill="white"/>
<path d="M8.15942 3.48047L8.04541 3.82248L8.21942 3.88248" fill="white"/>
<path d="M8.15942 3.48047L8.04541 3.82248L8.21942 3.88248" fill="white"/>
<path d="M8.15942 3.48047L8.04541 3.82248L8.21942 3.88248" fill="white"/>
<path d="M8.15942 3.48047L8.04541 3.82248L8.21942 3.88248" fill="white"/>
<path d="M8.15942 3.48047L8.04541 3.82248L8.21942 3.88248" fill="white"/>
<path d="M8.15942 3.48047L8.04541 3.82248L8.21942 3.88248" fill="white"/>
<path d="M8.15942 3.48047L8.04541 3.82248L8.21942 3.88248" fill="white"/>
<path d="M8.15942 3.48047L8.04541 3.82248L8.21942 3.88248" fill="white"/>
<path d="M8.15942 3.48047L8.04541 3.82248L8.21942 3.88248" fill="white"/>
<path d="M8.15942 3.48047L8.04541 3.82248L8.21942 3.88248" fill="white"/>
<path d="M8.15942 3.48047L8.04541 3.82248L8.21942 3.88248" fill="white"/>
<path d="M8.15942 3.48047L8.04541 3.82248L8.21942 3.88248" fill="white"/>
<path d="M8.15942 3.48047L8.04541 3.82248L8.21942 3.88248" fill="white"/>
<path d="M8.15942 3.48047L8.04541 3.82248L8.21942 3.88248" fill="white"/>
<path d="M8.15942 3.48047L8.04541 3.82248L8.21942 3.88248" fill="white"/>
<path d="M8.15942 3.48047L8.04541 3.82248L8.21942 3.88248" fill="white"/>
<path d="M8.15942 3.48047L8.04541 3.82248L8.21942 3.88248" fill="white"/>
<path d="M8.15942 3.48047L8.04541 3.82248L8.21942 3.88248" fill="white"/>
<path d="M8.15942 3.48047L8.04541 3.82248L8.21942 3.88248" fill="white"/>
<path d="M8.15942 3.48047L8.04541 3.82248L8.21942 3.88248" fill="white"/>
<path d="M8.15942 3.48047L8.04541 3.82248L8.21942 3.88248" fill="white"/>
<path d="M8.15942 3.48047L8.04541 3.82248L8.21942 3.88248" fill="white"/>
<path d="M8.15942 3.48047L8.04541 3.82248L8.21942 3.88248" fill="white"/>
<path d="M8.15942 3.48047L8.04541 3.82248L8.21942 3.88248" fill="white"/>
<path d="M8.15942 3.48047L8.04541 3.82248L8.21942 3.88248" fill="white"/>
<path d="M8.15942 3.48047L8.04541 3.82248L8.21942 3.88248" fill="white"/>
<path d="M8.15942 3.48047L8.04541 3.82248L8.21942 3.88248" fill="white"/>
<path d="M8.15942 3.48047L8.04541 3.82248L8.21942 3.88248" fill="white"/>
<path d="M8.15942 3.48047L8.04541 3.82248L8.21942 3.88248" fill="white"/>
<path d="M8.15942 3.48047L8.04541 3.82248L8.21942 3.88248" fill="white"/>
</g>
<defs>
<clipPath id="clip0_7301_2721">
<rect width="20" height="15" rx="2" fill="white"/>
</clipPath>
</defs>
</svg>
